<?xml version="1.0" encoding="UTF-8" standalone="no"?>
<!-- Created with Inkscape (http://www.inkscape.org/) -->

<svg
   xmlns:dc="http://purl.org/dc/elements/1.1/"
   xmlns:cc="http://creativecommons.org/ns#"
   xmlns:rdf="http://www.w3.org/1999/02/22-rdf-syntax-ns#"
   xmlns:svg="http://www.w3.org/2000/svg"
   xmlns="http://www.w3.org/2000/svg"
   xmlns:xlink="http://www.w3.org/1999/xlink"
   xmlns:sodipodi="http://sodipodi.sourceforge.net/DTD/sodipodi-0.dtd"
   xmlns:inkscape="http://www.inkscape.org/namespaces/inkscape"
   id="svg2826"
   version="1.1"
   inkscape:version="0.47pre4 "
   width="256"
   height="256"
   sodipodi:docname="fountai.2010_05_04_19_54_18.0.svg">
  <metadata
     id="metadata2832">
    <rdf:RDF>
      <cc:Work
         rdf:about="">
        <dc:format>image/svg+xml</dc:format>
        <dc:type
           rdf:resource="http://purl.org/dc/dcmitype/StillImage" />
        <dc:title></dc:title>
      </cc:Work>
    </rdf:RDF>
  </metadata>
  <defs
     id="defs2830">
    <inkscape:perspective
       sodipodi:type="inkscape:persp3d"
       inkscape:vp_x="0 : 0.5 : 1"
       inkscape:vp_y="0 : 1000 : 0"
       inkscape:vp_z="1 : 0.5 : 1"
       inkscape:persp3d-origin="0.5 : 0.33333333 : 1"
       id="perspective2834" />
  </defs>
  <sodipodi:namedview
     pagecolor="#ffffff"
     bordercolor="#666666"
     borderopacity="1"
     objecttolerance="10"
     gridtolerance="10"
     guidetolerance="10"
     inkscape:pageopacity="0"
     inkscape:pageshadow="2"
     inkscape:window-width="1680"
     inkscape:window-height="988"
     id="namedview2828"
     showgrid="false"
     showguides="true"
     inkscape:guide-bbox="true"
     inkscape:zoom="2.4112388"
     inkscape:cx="61.221752"
     inkscape:cy="126.87435"
     inkscape:window-x="1272"
     inkscape:window-y="-8"
     inkscape:window-maximized="1"
     inkscape:current-layer="g2864" />
  <g
     inkscape:groupmode="layer"
     id="layer2"
     inkscape:label="ref"
     sodipodi:insensitive="true"
     style="display:none">
    <image
       xlink:href="file:///C:/Users/Stuart/Pictures/tf2/krakenstein/frankenstein.jpg"
       width="82.633484"
       height="188.6356"
       id="image2836"
       x="86.683258"
       y="64.461327" />
  </g>
  <g
     inkscape:groupmode="layer"
     id="layer1"
     inkscape:label="body"
     style="display:inline">
    <use
       x="0"
       y="0"
       inkscape:tiled-clone-of="#g2864"
       xlink:href="#g2864"
       transform="matrix(-1,0,0,1,256,1.2447101e-8)"
       id="use2880"
       width="256"
       height="256"
       style="stroke-linecap:butt" />
    <g
       id="g2864"
       inkscape:tile-cx="65.725744"
       inkscape:tile-cy="126.26445"
       inkscape:tile-w="123.18941"
       inkscape:tile-h="237.77026"
       inkscape:tile-x0="4.131037"
       inkscape:tile-y0="7.379319"
       transform="translate(0.6795529,1.7355505)"
       style="stroke:#000000;fill:#000000;stroke-linecap:butt">
      <path
         sodipodi:nodetypes="cscscc"
         id="path2855"
         d="M 126.96494,70.929155 C 129.69422,35.35354 105.60982,2.0127012 66.789839,4.1194899 9.7516514,7.2149936 19.22932,115.74157 19.22932,115.74157 c 0,0 8.165318,-76.355877 35.606447,-92.945786 C 83.875409,5.2394723 114.37767,38.13828 120.74102,71.39572 l 6.22392,-0.466565 z"
         style="fill:#0000ff;stroke:#0000ff;stroke-width:1px;stroke-linecap:butt;stroke-linejoin:miter;stroke-opacity:1" />
      <path
         sodipodi:nodetypes="cssscssscc"
         id="path2857"
         d="M 122.35391,71.39572 C 109.93881,47.578995 98.320812,32.409552 75.607513,36.604434 60.66154,39.364781 67.595882,69.618924 56.379672,72.612528 38.726402,77.324182 37.478657,127.67 34.875242,130.44557 c -3.558309,3.79361 -8.882842,-0.43538 -8.882842,-0.43538 0,0 1.874442,10.84701 12.183864,7.22955 10.094377,-3.542 6.642743,-48.029943 27.237767,-53.743463 10.39747,-2.884491 10.26826,-30.134966 17.445119,-31.19209 9.82382,-1.447013 26.23154,19.091533 26.23154,19.091533 l 13.26322,0 z"
         style="fill:#0000ff;stroke:#0000ff;stroke-width:1px;stroke-linecap:butt;stroke-linejoin:miter;stroke-opacity:1" />
      <path
         sodipodi:nodetypes="ccsssccscssc"
         id="path2859"
         d="m 109.08414,71.39572 10.44853,0 c 0,0 -8.05549,-14.597565 -19.04569,-10.450319 -10.990206,4.147245 -24.253539,51.282729 -26.458643,67.526789 -3.824187,28.17116 -2.698404,90.7864 -26.749735,102.54065 -8.721554,4.26236 -15.966896,4.87302 -23.639301,-0.72576 -4.211378,-2.30657 -9.230482,-8.62659 -3.110434,-11.81965 0,0 -8.096216,0.59545 -8.294492,4.76933 -1.059334,22.29987 23.477109,21.88284 40.850371,18.45524 33.671504,-17.84033 30.43709,-57.31725 35.873676,-92.06885 3.485,-22.27673 6.921085,-76.701316 16.173618,-81.026821 3.81917,-1.785437 3.9521,2.799391 3.9521,2.799391 z"
         style="fill:#0000ff;stroke:#0000ff;stroke-width:1px;stroke-linecap:butt;stroke-linejoin:miter;stroke-opacity:1" />
      <path
         sodipodi:nodetypes="csssssscsssssscc"
         id="path2862"
         d="m 123.38056,71.39572 c 0,0 -4.97669,-24.831631 -11.61229,-32.296674 -6.63559,-7.465042 -9.04414,-10.860098 -12.569308,-7.542302 -2.458123,2.313525 -12.1309,30.938929 -13.350974,39.838976 -1.117156,8.149292 16.389762,45.00809 -6.128518,33.97923 -15.51215,-7.597452 -20.479167,0.66932 -23.660888,7.26331 -2.211717,4.5837 -9.632575,74.19808 -17.074471,76.59108 -17.738845,5.70406 -19.932156,-54.76546 -19.932156,-54.76546 0,0 -10.524008,42.71905 2.721086,62.28234 11.620301,17.16345 18.416205,13.58686 28.615995,1.19234 8.134623,-9.88498 12.916681,-71.83516 20.712407,-75.7934 5.960615,-3.02647 20.172898,-1.16855 25.114659,1.14298 9.450518,4.42052 5.442048,-26.241288 2.073626,-44.79026 -1.372861,-7.559962 6.428232,-13.68591 10.160752,-13.68591 3.73252,0 4.97669,6.58375 4.97669,6.58375 l 9.95339,0 z"
         style="fill:#0000ff;stroke:#0000ff;stroke-width:1px;stroke-linecap:butt;stroke-linejoin:miter;stroke-opacity:1" />
      <path
         style="fill:#ff0000;stroke:#ff0000;stroke-width:1px;stroke-linecap:butt;stroke-linejoin:miter;stroke-opacity:1"
         d="M 108.875 73.125 L 103.96875 78.03125 L 110.5 86.46875 L 107.96875 136.25 L 103.6875 136.1875 L 103.75 131.9375 L 99.65625 131.5625 L 99.125 142.9375 L 103.625 142.84375 L 103.6875 138.6875 L 107.84375 138.6875 L 107.5625 143.9375 L 102 155.25 L 96.71875 165.0625 L 93.65625 195.5625 L 93.5 231.78125 L 97.21875 246.875 L 128 246.875 L 128 73.125 L 108.875 73.125 z "
         transform="translate(-0.6795529,-1.7355505)"
         id="path2853" />
    </g>
  </g>
</svg>
