<?xml version="1.0" encoding="UTF-8" standalone="no"?>
<!-- Created with Inkscape (http://www.inkscape.org/) -->

<svg
   xmlns:dc="http://purl.org/dc/elements/1.1/"
   xmlns:cc="http://creativecommons.org/ns#"
   xmlns:rdf="http://www.w3.org/1999/02/22-rdf-syntax-ns#"
   xmlns:svg="http://www.w3.org/2000/svg"
   xmlns="http://www.w3.org/2000/svg"
   xmlns:xlink="http://www.w3.org/1999/xlink"
   xmlns:sodipodi="http://sodipodi.sourceforge.net/DTD/sodipodi-0.dtd"
   xmlns:inkscape="http://www.inkscape.org/namespaces/inkscape"
   id="svg2826"
   version="1.1"
   inkscape:version="0.47pre4 "
   width="256"
   height="256"
   sodipodi:docname="fountain.svg">
  <metadata
     id="metadata2832">
    <rdf:RDF>
      <cc:Work
         rdf:about="">
        <dc:format>image/svg+xml</dc:format>
        <dc:type
           rdf:resource="http://purl.org/dc/dcmitype/StillImage" />
        <dc:title></dc:title>
      </cc:Work>
    </rdf:RDF>
  </metadata>
  <defs
     id="defs2830">
    <inkscape:perspective
       sodipodi:type="inkscape:persp3d"
       inkscape:vp_x="0 : 0.5 : 1"
       inkscape:vp_y="0 : 1000 : 0"
       inkscape:vp_z="1 : 0.5 : 1"
       inkscape:persp3d-origin="0.5 : 0.33333333 : 1"
       id="perspective2834" />
  </defs>
  <sodipodi:namedview
     pagecolor="#ffffff"
     bordercolor="#666666"
     borderopacity="1"
     objecttolerance="10"
     gridtolerance="10"
     guidetolerance="10"
     inkscape:pageopacity="0"
     inkscape:pageshadow="2"
     inkscape:window-width="1680"
     inkscape:window-height="988"
     id="namedview2828"
     showgrid="false"
     showguides="true"
     inkscape:guide-bbox="true"
     inkscape:zoom="0.56244134"
     inkscape:cx="-391.30316"
     inkscape:cy="-4.6909715"
     inkscape:window-x="1272"
     inkscape:window-y="-8"
     inkscape:window-maximized="1"
     inkscape:current-layer="svg2826" />
  <g
     inkscape:groupmode="layer"
     id="layer2"
     inkscape:label="ref"
     sodipodi:insensitive="true"
     style="display:none">
    <image
       xlink:href="file:///C:/Users/Stuart/Pictures/tf2/krakenstein/frankenstein.jpg"
       width="82.633484"
       height="188.6356"
       id="image2836"
       x="86.683258"
       y="64.461327" />
  </g>
  <g
     inkscape:groupmode="layer"
     id="layer1"
     inkscape:label="body"
     style="display:inline">
    <use
       x="0"
       y="0"
       inkscape:tiled-clone-of="#g2864"
       xlink:href="#g2864"
       transform="matrix(-1,0,0,1,256,1.7246123e-8)"
       id="use2880"
       width="256"
       height="256"
       style="stroke-linecap:butt" />
    <g
       id="g2864"
       inkscape:tile-cx="65.725744"
       inkscape:tile-cy="126.26445"
       inkscape:tile-w="123.18941"
       inkscape:tile-h="237.77026"
       inkscape:tile-x0="4.131037"
       inkscape:tile-y0="7.379319"
       transform="translate(0.6795529,3.1168468)"
       style="fill:#000000;stroke:#000000;stroke-linecap:butt">
      <path
         sodipodi:nodetypes="cscscc"
         id="path2855"
         d="M 126.93317,71.402028 C 129.81756,35.83062 99.548937,2.6294527 58.522692,4.7359923 -1.7571611,7.8311299 20.254509,112.56215 20.254509,112.56215 c 0,0 -7.036712,-72.852062 21.963985,-89.440009 30.690059,-17.5542347 70.792186,7.695883 71.628676,48.279887 l 13.086,0 z"
         style="fill:#5b7a8c;fill-opacity:1;stroke:#5b7a8c;stroke-width:1.02796316px;stroke-linecap:butt;stroke-linejoin:miter;stroke-opacity:1" />
      <path
         sodipodi:nodetypes="cszczscc"
         id="path2857"
         d="M 122.06008,71.402022 C 119.01182,45.975404 97.055119,29.086874 75.5109,30.019662 c -24.474257,1.059648 -4.367537,54.778304 -11.508509,57.4588 -7.140973,2.680496 -10.800207,-9.97009 -10.800207,-9.97009 0,0 1.852984,17.526541 12.675443,16.802524 C 76.700086,93.58688 68.711143,44.635032 75.397694,43.797402 95.685832,41.25589 107.92988,62.1656 109.20528,71.328722 l 12.8548,0.0733 z"
         style="fill:#5b7a8c;fill-opacity:1;stroke:#5b7a8c;stroke-width:1.02796316px;stroke-linecap:butt;stroke-linejoin:miter;stroke-opacity:1" />
      <path
         sodipodi:nodetypes="ccsssscszssc"
         id="path2859"
         d="m 108.03614,71.402028 11.04236,0 c 0,0 -8.51331,-14.595839 -20.128121,-10.449083 -11.614815,4.146754 -25.631946,51.276665 -27.962373,67.518805 -4.041528,28.16783 -2.851763,90.77566 -28.270009,102.52852 -9.217228,4.26186 -23.546596,0.68844 -26.532405,-3.21804 -1.525687,-1.99613 -4.48642,-5.54676 21.506484,-9.6191 0,0 -28.5295011,-0.18578 -32.0099826,5.06198 -7.4278876,11.19953 18.5001746,26.80504 45.4730766,16.17234 26.972903,-10.63271 29.865881,-55.02975 35.611446,-89.77724 3.683064,-22.2741 7.314433,-76.692249 17.092814,-81.017242 4.03623,-1.785226 4.17671,2.79906 4.17671,2.79906 z"
         style="fill:#5b7a8c;fill-opacity:1;stroke:#5b7a8c;stroke-width:1.02796316px;stroke-linecap:butt;stroke-linejoin:miter;stroke-opacity:1" />
      <path
         sodipodi:nodetypes="cssssscsssssscc"
         id="path2862"
         d="m 123.14508,71.402028 c 0,0 -5.25954,-24.828695 -12.27226,-32.292855 -7.01271,-7.464159 -19.37432,-7.770394 -22.268703,-3.80933 -12.44635,17.033264 9.631263,76.129897 -11.601532,70.077397 -17.290351,-4.9287 -21.643065,0.66924 -25.005613,7.26245 -2.337416,4.58316 -7.65938,93.47781 -28.541917,83.06844 -12.390041,-6.1761 -6.907381,-17.09213 -6.907381,-17.09213 0,0 -11.4700892,9.16988 -4.835802,18.95322 9.30643,13.72383 21.916327,9.92917 33.053651,-0.8122 11.621468,-11.20829 14.890462,-70.65378 23.129244,-74.61155 6.299376,-3.02612 21.319389,-1.16842 26.542006,1.14284 9.987617,4.42 5.751337,-26.238184 2.191477,-44.784962 -1.450885,-7.559068 0.219148,-15.135656 3.94465,-16.58702 3.64754,-1.420989 12.0531,9.4857 12.0531,9.4857 l 10.51908,0 z"
         style="fill:#5b7a8c;fill-opacity:1;stroke:#5b7a8c;stroke-width:1.02796316px;stroke-linecap:butt;stroke-linejoin:miter;stroke-opacity:1" />
      <path
         style="fill:#bd3b3b;fill-opacity:1;stroke:#bd3b3b;stroke-width:1px;stroke-linecap:butt;stroke-linejoin:miter;stroke-opacity:1"
         d="m 135.62462,73.125 -26.74962,0 -4.90625,4.90625 6.53125,8.4375 -2.53125,49.78125 -4.28125,-0.0625 0.0625,-4.25 -4.09375,-0.375 -0.53125,11.375 4.5,-0.0937 0.0625,-4.15625 4.15625,0 -0.28125,5.25 L 102,155.25 l -5.28125,9.8125 -3.0625,30.5 -0.15625,36.21875 3.71875,15.09375 38.40587,0"
         id="path2853"
         sodipodi:nodetypes="ccccccccccccccccccc"
         transform="translate(-0.6795529,-1.7355505)" />
    </g>
  </g>
</svg>
