<?xml version="1.0" encoding="UTF-8" standalone="no"?>
<!-- Created with Inkscape (http://www.inkscape.org/) -->

<svg
   xmlns:dc="http://purl.org/dc/elements/1.1/"
   xmlns:cc="http://creativecommons.org/ns#"
   xmlns:rdf="http://www.w3.org/1999/02/22-rdf-syntax-ns#"
   xmlns:svg="http://www.w3.org/2000/svg"
   xmlns="http://www.w3.org/2000/svg"
   xmlns:xlink="http://www.w3.org/1999/xlink"
   xmlns:sodipodi="http://sodipodi.sourceforge.net/DTD/sodipodi-0.dtd"
   xmlns:inkscape="http://www.inkscape.org/namespaces/inkscape"
   id="svg2826"
   version="1.1"
   inkscape:version="0.47pre4 "
   width="256"
   height="256"
   sodipodi:docname="fountain.svg">
  <metadata
     id="metadata2832">
    <rdf:RDF>
      <cc:Work
         rdf:about="">
        <dc:format>image/svg+xml</dc:format>
        <dc:type
           rdf:resource="http://purl.org/dc/dcmitype/StillImage" />
        <dc:title></dc:title>
      </cc:Work>
    </rdf:RDF>
  </metadata>
  <defs
     id="defs2830">
    <inkscape:perspective
       sodipodi:type="inkscape:persp3d"
       inkscape:vp_x="0 : 0.5 : 1"
       inkscape:vp_y="0 : 1000 : 0"
       inkscape:vp_z="1 : 0.5 : 1"
       inkscape:persp3d-origin="0.5 : 0.33333333 : 1"
       id="perspective2834" />
  </defs>
  <sodipodi:namedview
     pagecolor="#ffffff"
     bordercolor="#666666"
     borderopacity="1"
     objecttolerance="10"
     gridtolerance="10"
     guidetolerance="10"
     inkscape:pageopacity="0"
     inkscape:pageshadow="2"
     inkscape:window-width="1680"
     inkscape:window-height="988"
     id="namedview2828"
     showgrid="false"
     showguides="true"
     inkscape:guide-bbox="true"
     inkscape:zoom="1.2056194"
     inkscape:cx="125.82049"
     inkscape:cy="90.736026"
     inkscape:window-x="1272"
     inkscape:window-y="-8"
     inkscape:window-maximized="1"
     inkscape:current-layer="g2864" />
  <g
     inkscape:groupmode="layer"
     id="layer2"
     inkscape:label="ref"
     sodipodi:insensitive="true"
     style="display:none">
    <image
       xlink:href="file:///C:/Users/Stuart/Pictures/tf2/krakenstein/frankenstein.jpg"
       width="82.633484"
       height="188.6356"
       id="image2836"
       x="86.683258"
       y="64.461327" />
  </g>
  <g
     inkscape:groupmode="layer"
     id="layer1"
     inkscape:label="body"
     style="display:inline">
    <use
       x="0"
       y="0"
       inkscape:tiled-clone-of="#g2864"
       xlink:href="#g2864"
       transform="matrix(-1,0,0,1,256,1.2447101e-8)"
       id="use2880"
       width="256"
       height="256"
       style="stroke-linecap:butt" />
    <g
       id="g2864"
       inkscape:tile-cx="65.725744"
       inkscape:tile-cy="126.26445"
       inkscape:tile-w="123.18941"
       inkscape:tile-h="237.77026"
       inkscape:tile-x0="4.131037"
       inkscape:tile-y0="7.379319"
       transform="translate(0.6795529,1.7355505)"
       style="stroke:#000000;fill:#000000;stroke-linecap:butt">
      <path
         sodipodi:nodetypes="cscscc"
         id="path2855"
         d="M 126.96494,70.929155 C 129.69422,35.35354 114.73376,4.5010487 75.91378,6.6078374 18.875592,9.7033411 15.911523,89.613921 15.911523,89.613921 c 0,0 11.483115,-50.228228 38.924244,-66.818137 C 83.875409,5.2394723 114.37767,38.13828 120.74102,71.39572 l 6.22392,-0.466565 z"
         style="fill:#000080;stroke:#000080;stroke-width:1px;stroke-linecap:butt;stroke-linejoin:miter;stroke-opacity:1" />
      <path
         sodipodi:nodetypes="cszczscc"
         id="path2857"
         d="M 122.35391,71.39572 C 109.93881,47.578995 79.418304,44.165547 60.174282,55.225359 32.29563,71.247615 33.993747,111.96591 28.008917,130.0639 c -5.98483,18.09799 -12.615364,4.95603 -12.615364,4.95603 0,0 1.863393,23.31534 14.672212,8.47372 C 42.874584,128.65203 38.759194,86.984202 64.765787,70.652698 72.952886,65.5114 83.72417,63.917729 83.72417,63.917729 l 38.62974,7.477991 z"
         style="fill:#000080;stroke:#000080;stroke-width:1px;stroke-linecap:butt;stroke-linejoin:miter;stroke-opacity:1" />
      <path
         sodipodi:nodetypes="ccsssscscssc"
         id="path2859"
         d="m 109.08414,71.39572 10.44853,0 c 0,0 -8.05549,-14.597565 -19.04569,-10.450319 -10.990206,4.147245 -24.253539,51.282729 -26.458643,67.526789 -3.824187,28.17116 -2.698404,90.7864 -26.749735,102.54065 -8.721554,4.26236 -22.280333,0.68852 -25.105574,-3.21842 -1.44364,-1.99637 -4.245154,-5.54742 20.349931,-9.62024 0,0 -26.995272,-0.1858 -30.288584,5.06258 -7.0284387,11.20085 23.477109,21.88284 40.850371,18.45524 33.671504,-17.84033 30.43709,-57.31725 35.873676,-92.06885 3.485,-22.27673 6.921085,-76.701316 16.173618,-81.026821 3.81917,-1.785437 3.9521,2.799391 3.9521,2.799391 z"
         style="fill:#000080;stroke:#000080;stroke-width:1px;stroke-linecap:butt;stroke-linejoin:miter;stroke-opacity:1" />
      <path
         sodipodi:nodetypes="csccsscsssssscc"
         id="path2862"
         d="m 123.38056,71.39572 c 0,0 -4.97669,-24.831631 -11.61229,-32.296674 C 105.13268,31.634004 94.222276,31.971469 90.697108,35.289265 79.70652,52.96828 100.65881,108.76 79.71947,105.37495 c -15.51215,-7.597452 -20.479167,0.66932 -23.660888,7.26331 -2.211717,4.5837 -7.247482,93.48887 -27.00702,83.07826 -11.723743,-6.17683 -6.535924,-17.09415 -6.535924,-17.09415 0,0 -10.853263,9.17097 -4.575747,18.95546 8.805959,13.72546 20.737734,9.93035 31.276127,-0.81229 10.996502,-11.20962 14.089699,-70.66214 21.885425,-74.62038 5.960615,-3.02647 20.172898,-1.16855 25.114659,1.14298 9.450518,4.42052 5.442048,-26.241288 2.073626,-44.79026 -1.372861,-7.559962 0.207363,-15.137446 3.732522,-16.588982 3.45138,-1.421157 11.40492,9.486822 11.40492,9.486822 l 9.95339,0 z"
         style="fill:#000080;stroke:#000080;stroke-width:1px;stroke-linecap:butt;stroke-linejoin:miter;stroke-opacity:1" />
      <path
         style="fill:#aa0000;stroke:#aa0000;stroke-width:1px;stroke-linecap:butt;stroke-linejoin:miter;stroke-opacity:1"
         d="M 108.875 73.125 L 103.96875 78.03125 L 110.5 86.46875 L 107.96875 136.25 L 103.6875 136.1875 L 103.75 131.9375 L 99.65625 131.5625 L 99.125 142.9375 L 103.625 142.84375 L 103.6875 138.6875 L 107.84375 138.6875 L 107.5625 143.9375 L 102 155.25 L 96.71875 165.0625 L 93.65625 195.5625 L 93.5 231.78125 L 97.21875 246.875 L 128 246.875 L 128 73.125 L 108.875 73.125 z "
         transform="translate(-0.6795529,-1.7355505)"
         id="path2853" />
    </g>
  </g>
</svg>
